<svg width="173" height="40" viewBox="0 0 173 40" fill="none" xmlns="http://www.w3.org/2000/svg">
<g clip-path="url(#clip0_1606_2)">
<path d="M34.1422 5.85781C30.3647 2.08031 25.3422 0 20 0C14.6578 0 9.63531 2.08031 5.85781 5.85781C2.08031 9.63531 0 14.6578 0 20C0 25.3422 2.08039 30.3646 5.85781 34.1422C9.63523 37.9198 14.6578 40 20 40C25.3422 40 30.3647 37.9197 34.1422 34.1422C37.9197 30.3647 40 25.3422 40 20C40 14.6578 37.9196 9.63539 34.1422 5.85781Z" fill="#13AB7E"/>
<mask id="mask0_1606_2" style="mask-type:luminance" maskUnits="userSpaceOnUse" x="6" y="6" width="29" height="29">
<path d="M34.2855 6.85715H6.85693V34.2857H34.2855V6.85715Z" fill="white"/>
</mask>
<g mask="url(#mask0_1606_2)">
<path d="M20.5708 8V33.1429" stroke="white" stroke-width="2" stroke-linecap="round" stroke-linejoin="round"/>
<path d="M26.2853 12.5714H17.7139C16.653 12.5714 15.6356 12.9929 14.8855 13.743C14.1353 14.4931 13.7139 15.5106 13.7139 16.5714C13.7139 17.6323 14.1353 18.6497 14.8855 19.3999C15.6356 20.15 16.653 20.5714 17.7139 20.5714H23.4282C24.489 20.5714 25.5065 20.9929 26.2566 21.743C27.0068 22.4932 27.4282 23.5106 27.4282 24.5714C27.4282 25.6323 27.0068 26.6497 26.2566 27.3999C25.5065 28.15 24.489 28.5714 23.4282 28.5714H13.7139" stroke="white" stroke-width="2" stroke-linecap="round" stroke-linejoin="round"/>
</g>
<path d="M64.2199 3.172V13H61.8259V7.106L59.6279 13H57.6959L55.4839 7.092V13H53.0899V3.172H55.9179L58.6759 9.976L61.4059 3.172H64.2199ZM68.5454 4.376C68.1254 4.376 67.7801 4.25467 67.5094 4.012C67.2481 3.76 67.1174 3.452 67.1174 3.088C67.1174 2.71467 67.2481 2.40667 67.5094 2.164C67.7801 1.912 68.1254 1.786 68.5454 1.786C68.9561 1.786 69.2921 1.912 69.5534 2.164C69.8241 2.40667 69.9594 2.71467 69.9594 3.088C69.9594 3.452 69.8241 3.76 69.5534 4.012C69.2921 4.25467 68.9561 4.376 68.5454 4.376ZM69.7354 5.188V13H67.3414V5.188H69.7354ZM77.6303 5.104C78.545 5.104 79.273 5.40267 79.8143 6C80.365 6.588 80.6403 7.4 80.6403 8.436V13H78.2603V8.758C78.2603 8.23533 78.125 7.82933 77.8543 7.54C77.5837 7.25067 77.2197 7.106 76.7623 7.106C76.305 7.106 75.941 7.25067 75.6703 7.54C75.3997 7.82933 75.2643 8.23533 75.2643 8.758V13H72.8703V5.188H75.2643V6.224C75.507 5.87867 75.8337 5.608 76.2443 5.412C76.655 5.20667 77.117 5.104 77.6303 5.104ZM88.5059 5.104C89.4019 5.104 90.1206 5.40267 90.6619 6C91.2033 6.588 91.4739 7.4 91.4739 8.436V13H89.0939V8.758C89.0939 8.23533 88.9586 7.82933 88.6879 7.54C88.4173 7.25067 88.0533 7.106 87.5959 7.106C87.1386 7.106 86.7746 7.25067 86.5039 7.54C86.2333 7.82933 86.0979 8.23533 86.0979 8.758V13H83.7039V2.64H86.0979V6.238C86.3406 5.89267 86.6719 5.61733 87.0919 5.412C87.5119 5.20667 87.9833 5.104 88.5059 5.104ZM94.0615 9.08C94.0615 8.27733 94.2109 7.57267 94.5095 6.966C94.8175 6.35933 95.2329 5.89267 95.7555 5.566C96.2782 5.23933 96.8615 5.076 97.5055 5.076C98.0562 5.076 98.5369 5.188 98.9475 5.412C99.3675 5.636 99.6895 5.93 99.9135 6.294V5.188H102.308V13H99.9135V11.894C99.6802 12.258 99.3535 12.552 98.9335 12.776C98.5229 13 98.0422 13.112 97.4915 13.112C96.8569 13.112 96.2782 12.9487 95.7555 12.622C95.2329 12.286 94.8175 11.8147 94.5095 11.208C94.2109 10.592 94.0615 9.88267 94.0615 9.08ZM99.9135 9.094C99.9135 8.49667 99.7455 8.02533 99.4095 7.68C99.0829 7.33467 98.6815 7.162 98.2055 7.162C97.7295 7.162 97.3235 7.33467 96.9875 7.68C96.6609 8.016 96.4975 8.48267 96.4975 9.08C96.4975 9.67733 96.6609 10.1533 96.9875 10.508C97.3235 10.8533 97.7295 11.026 98.2055 11.026C98.6815 11.026 99.0829 10.8533 99.4095 10.508C99.7455 10.1627 99.9135 9.69133 99.9135 9.094ZM108.617 13.112C107.936 13.112 107.329 12.9953 106.797 12.762C106.265 12.5287 105.845 12.2113 105.537 11.81C105.229 11.3993 105.057 10.942 105.019 10.438H107.385C107.413 10.7087 107.539 10.928 107.763 11.096C107.987 11.264 108.263 11.348 108.589 11.348C108.888 11.348 109.117 11.292 109.275 11.18C109.443 11.0587 109.527 10.9047 109.527 10.718C109.527 10.494 109.411 10.3307 109.177 10.228C108.944 10.116 108.566 9.99467 108.043 9.864C107.483 9.73333 107.017 9.598 106.643 9.458C106.27 9.30867 105.948 9.08 105.677 8.772C105.407 8.45467 105.271 8.03 105.271 7.498C105.271 7.05 105.393 6.644 105.635 6.28C105.887 5.90667 106.251 5.61267 106.727 5.398C107.213 5.18333 107.787 5.076 108.449 5.076C109.429 5.076 110.199 5.31867 110.759 5.804C111.329 6.28933 111.655 6.93333 111.739 7.736H109.527C109.49 7.46533 109.369 7.25067 109.163 7.092C108.967 6.93333 108.706 6.854 108.379 6.854C108.099 6.854 107.885 6.91 107.735 7.022C107.586 7.12467 107.511 7.26933 107.511 7.456C107.511 7.68 107.628 7.848 107.861 7.96C108.104 8.072 108.477 8.184 108.981 8.296C109.56 8.44533 110.031 8.59467 110.395 8.744C110.759 8.884 111.077 9.11733 111.347 9.444C111.627 9.76133 111.772 10.1907 111.781 10.732C111.781 11.1893 111.651 11.6 111.389 11.964C111.137 12.3187 110.769 12.5987 110.283 12.804C109.807 13.0093 109.252 13.112 108.617 13.112ZM52.3963 24.172V26.09H48.3923V28.162H51.3883V30.024H48.3923V34H45.9983V24.172H52.3963ZM56.2585 25.376C55.8385 25.376 55.4932 25.2547 55.2225 25.012C54.9612 24.76 54.8305 24.452 54.8305 24.088C54.8305 23.7147 54.9612 23.4067 55.2225 23.164C55.4932 22.912 55.8385 22.786 56.2585 22.786C56.6692 22.786 57.0052 22.912 57.2665 23.164C57.5372 23.4067 57.6725 23.7147 57.6725 24.088C57.6725 24.452 57.5372 24.76 57.2665 25.012C57.0052 25.2547 56.6692 25.376 56.2585 25.376ZM57.4485 26.188V34H55.0545V26.188H57.4485ZM65.3434 26.104C66.2581 26.104 66.9861 26.4027 67.5274 27C68.0781 27.588 68.3534 28.4 68.3534 29.436V34H65.9734V29.758C65.9734 29.2353 65.8381 28.8293 65.5674 28.54C65.2968 28.2507 64.9328 28.106 64.4754 28.106C64.0181 28.106 63.6541 28.2507 63.3834 28.54C63.1128 28.8293 62.9774 29.2353 62.9774 29.758V34H60.5834V26.188H62.9774V27.224C63.2201 26.8787 63.5468 26.608 63.9574 26.412C64.3681 26.2067 64.8301 26.104 65.3434 26.104ZM70.941 30.08C70.941 29.2773 71.0904 28.5727 71.389 27.966C71.697 27.3593 72.1124 26.8927 72.635 26.566C73.1577 26.2393 73.741 26.076 74.385 26.076C74.9357 26.076 75.4164 26.188 75.827 26.412C76.247 26.636 76.569 26.93 76.793 27.294V26.188H79.187V34H76.793V32.894C76.5597 33.258 76.233 33.552 75.813 33.776C75.4024 34 74.9217 34.112 74.371 34.112C73.7364 34.112 73.1577 33.9487 72.635 33.622C72.1124 33.286 71.697 32.8147 71.389 32.208C71.0904 31.592 70.941 30.8827 70.941 30.08ZM76.793 30.094C76.793 29.4967 76.625 29.0253 76.289 28.68C75.9624 28.3347 75.561 28.162 75.085 28.162C74.609 28.162 74.203 28.3347 73.867 28.68C73.5404 29.016 73.377 29.4827 73.377 30.08C73.377 30.6773 73.5404 31.1533 73.867 31.508C74.203 31.8533 74.609 32.026 75.085 32.026C75.561 32.026 75.9624 31.8533 76.289 31.508C76.625 31.1627 76.793 30.6913 76.793 30.094ZM87.079 26.104C87.9936 26.104 88.7216 26.4027 89.263 27C89.8136 27.588 90.089 28.4 90.089 29.436V34H87.709V29.758C87.709 29.2353 87.5736 28.8293 87.303 28.54C87.0323 28.2507 86.6683 28.106 86.211 28.106C85.7536 28.106 85.3896 28.2507 85.119 28.54C84.8483 28.8293 84.713 29.2353 84.713 29.758V34H82.319V26.188H84.713V27.224C84.9556 26.8787 85.2823 26.608 85.693 26.412C86.1036 26.2067 86.5656 26.104 87.079 26.104ZM96.5546 32.068C97.1706 32.068 97.5859 31.7693 97.8006 31.172H100.349C100.171 31.9653 99.8166 32.614 99.2846 33.118C98.7526 33.622 98.0899 33.9347 97.2966 34.056V34.574C97.7819 34.574 98.2066 34.7047 98.5706 34.966C98.9346 35.2367 99.1166 35.638 99.1166 36.17C99.1166 36.702 98.9252 37.1033 98.5426 37.374C98.1599 37.654 97.7026 37.794 97.1706 37.794H95.0146V36.478H96.8486C97.0352 36.478 97.1752 36.45 97.2686 36.394C97.3619 36.338 97.4086 36.2447 97.4086 36.114C97.4086 35.9833 97.3619 35.89 97.2686 35.834C97.1752 35.7873 97.0352 35.764 96.8486 35.764H95.8546V34.056C94.8932 33.9067 94.1232 33.482 93.5446 32.782C92.9659 32.0727 92.6766 31.1767 92.6766 30.094C92.6766 29.282 92.8399 28.5727 93.1666 27.966C93.5026 27.3593 93.9646 26.8927 94.5526 26.566C95.1499 26.2393 95.8312 26.076 96.5966 26.076C97.5766 26.076 98.3932 26.3327 99.0466 26.846C99.7092 27.3593 100.143 28.0827 100.349 29.016H97.8006C97.5859 28.4187 97.1706 28.12 96.5546 28.12C96.1159 28.12 95.7659 28.2927 95.5046 28.638C95.2432 28.974 95.1126 29.4593 95.1126 30.094C95.1126 30.7287 95.2432 31.2187 95.5046 31.564C95.7659 31.9 96.1159 32.068 96.5546 32.068ZM102.553 30.08C102.553 29.2773 102.702 28.5727 103.001 27.966C103.309 27.3593 103.724 26.8927 104.247 26.566C104.77 26.2393 105.353 26.076 105.997 26.076C106.548 26.076 107.028 26.188 107.439 26.412C107.859 26.636 108.181 26.93 108.405 27.294V26.188H110.799V34H108.405V32.894C108.172 33.258 107.845 33.552 107.425 33.776C107.014 34 106.534 34.112 105.983 34.112C105.348 34.112 104.77 33.9487 104.247 33.622C103.724 33.286 103.309 32.8147 103.001 32.208C102.702 31.592 102.553 30.8827 102.553 30.08ZM108.405 30.094C108.405 29.4967 108.237 29.0253 107.901 28.68C107.574 28.3347 107.173 28.162 106.697 28.162C106.221 28.162 105.815 28.3347 105.479 28.68C105.152 29.016 104.989 29.4827 104.989 30.08C104.989 30.6773 105.152 31.1533 105.479 31.508C105.815 31.8533 106.221 32.026 106.697 32.026C107.173 32.026 107.574 31.8533 107.901 31.508C108.237 31.1627 108.405 30.6913 108.405 30.094ZM117.109 34.112C116.428 34.112 115.821 33.9953 115.289 33.762C114.757 33.5287 114.337 33.2113 114.029 32.81C113.721 32.3993 113.548 31.942 113.511 31.438H115.877C115.905 31.7087 116.031 31.928 116.255 32.096C116.479 32.264 116.754 32.348 117.081 32.348C117.38 32.348 117.608 32.292 117.767 32.18C117.935 32.0587 118.019 31.9047 118.019 31.718C118.019 31.494 117.902 31.3307 117.669 31.228C117.436 31.116 117.058 30.9947 116.535 30.864C115.975 30.7333 115.508 30.598 115.135 30.458C114.762 30.3087 114.44 30.08 114.169 29.772C113.898 29.4547 113.763 29.03 113.763 28.498C113.763 28.05 113.884 27.644 114.127 27.28C114.379 26.9067 114.743 26.6127 115.219 26.398C115.704 26.1833 116.278 26.076 116.941 26.076C117.921 26.076 118.691 26.3187 119.251 26.804C119.82 27.2893 120.147 27.9333 120.231 28.736H118.019C117.982 28.4653 117.86 28.2507 117.655 28.092C117.459 27.9333 117.198 27.854 116.871 27.854C116.591 27.854 116.376 27.91 116.227 28.022C116.078 28.1247 116.003 28.2693 116.003 28.456C116.003 28.68 116.12 28.848 116.353 28.96C116.596 29.072 116.969 29.184 117.473 29.296C118.052 29.4453 118.523 29.5947 118.887 29.744C119.251 29.884 119.568 30.1173 119.839 30.444C120.119 30.7613 120.264 31.1907 120.273 31.732C120.273 32.1893 120.142 32.6 119.881 32.964C119.629 33.3187 119.26 33.5987 118.775 33.804C118.299 34.0093 117.744 34.112 117.109 34.112Z" fill="white"/>
</g>
<defs>
<clipPath id="clip0_1606_2">
<rect width="173" height="40" fill="white"/>
</clipPath>
</defs>
</svg>
